<mxfile host="app.diagrams.net" modified="2024-01-08T08:13:52.181Z" agent="Mozilla/5.0 (X11; Linux x86_64) AppleWebKit/537.36 (KHTML, like Gecko) Chrome/120.0.0.0 Safari/537.36" etag="9is3UW1lsyhEAWSlfHH9" version="22.1.17" type="github">
  <diagram name="Page-1" id="3046LY6FRETQRyPuvJ3N">
    <mxGraphModel dx="1434" dy="759" grid="1" gridSize="10" guides="1" tooltips="1" connect="1" arrows="1" fold="1" page="1" pageScale="1" pageWidth="583" pageHeight="413" math="0" shadow="0">
      <root>
        <mxCell id="0" />
        <mxCell id="1" parent="0" />
        <mxCell id="-S3YvDknbfCUGzUXlvrR-3" style="edgeStyle=orthogonalEdgeStyle;rounded=0;orthogonalLoop=1;jettySize=auto;html=1;exitX=1;exitY=0.5;exitDx=0;exitDy=0;entryX=0;entryY=0.5;entryDx=0;entryDy=0;endArrow=baseDash;endFill=0;startArrow=diamond;startFill=1;" edge="1" parent="1" source="-S3YvDknbfCUGzUXlvrR-1" target="-S3YvDknbfCUGzUXlvrR-2">
          <mxGeometry relative="1" as="geometry" />
        </mxCell>
        <mxCell id="-S3YvDknbfCUGzUXlvrR-1" value="" style="rhombus;whiteSpace=wrap;html=1;" vertex="1" parent="1">
          <mxGeometry x="100" y="40" width="80" height="80" as="geometry" />
        </mxCell>
        <mxCell id="-S3YvDknbfCUGzUXlvrR-2" value="" style="shape=parallelogram;perimeter=parallelogramPerimeter;whiteSpace=wrap;html=1;fixedSize=1;" vertex="1" parent="1">
          <mxGeometry x="310" y="50" width="120" height="60" as="geometry" />
        </mxCell>
      </root>
    </mxGraphModel>
  </diagram>
</mxfile>
